<svg width="24" height="24" version="1.1" viewBox="0 0 6.35 6.35" xmlns="http://www.w3.org/2000/svg">
 <g>
  <path d="m1.8947 0.52902a0.10584 0.10584 0 0 0-0.00345 4.306e-4h0.021532c-6.415e-4 -6.1e-6 -0.00732-4.306e-4 -0.00732-4.306e-4a0.10584 0.10584 0 0 0-0.010766 0zm0.018087 4.306e-4c0.020357 1.944e-4 0.35195 0.00639 0.686 0.2291 0.34459 0.22972 0.68213 0.69741 0.68213 1.5705a0.10594 0.10594 0 1 1-0.21187 0c0-0.82021-0.29698-1.1995-0.58739-1.3931-0.2904-0.19365-0.57619-0.19551-0.57619-0.19551a0.10584 0.10584 0 0 1-0.014211-0.21101h-0.039188s-1.3229 0-1.3229 1.7639c0 1.7639 1.3229 1.7639 1.3229 1.7639s1.3229 0.22049 1.3229-1.3229v3.0868h2.6458v-3.5278s0-1.7639-1.3229-1.7639zm-0.018517 0.84749a0.10584 0.10584 0 0 1 0.011197 0s0.1901-0.00203 0.37595 0.12187c0.18584 0.1239 0.36475 0.38048 0.36475 0.83027 0 0.44979-0.17891 0.70465-0.36475 0.82855-0.18585 0.12389-0.37595 0.12359-0.37595 0.12359a0.10584 0.10584 0 1 1 0-0.21144s0.12716-5.071e-4 0.25881-0.08828c0.13166-0.087775 0.27001-0.25554 0.27001-0.65242s-0.13835-0.56507-0.27001-0.65285c-0.13166-0.087767-0.25881-0.08785-0.25881-0.08785a0.10594 0.10594 0 0 1-0.011196-0.21144z"/>
 </g>
 <g transform="translate(-91.788 -102.64)" display="none">
  <path d="m93.439 106.83s-1.524 0-1.524-2.032c0-2.032 1.524-2.032 1.524-2.032h3.048s1.524 0 1.524 2.032v4.064h-3.048v-4.064" fill="none"/>
 </g>
</svg>
