<?xml version="1.0" encoding="UTF-8" standalone="no"?>
<!-- Created with Inkscape (http://www.inkscape.org/) -->

<svg
   xmlns:dc="http://purl.org/dc/elements/1.1/"
   xmlns:cc="http://creativecommons.org/ns#"
   xmlns:rdf="http://www.w3.org/1999/02/22-rdf-syntax-ns#"
   xmlns:svg="http://www.w3.org/2000/svg"
   xmlns="http://www.w3.org/2000/svg"
   xmlns:sodipodi="http://sodipodi.sourceforge.net/DTD/sodipodi-0.dtd"
   xmlns:inkscape="http://www.inkscape.org/namespaces/inkscape"
   width="36"
   height="36"
   viewBox="0 0 9.5249997 9.5249997"
   version="1.1"
   id="svg8"
   inkscape:version="0.92.4 (5da689c313, 2019-01-14)"
   sodipodi:docname="tpflow-back.svg">
  <defs
     id="defs2" />
  <sodipodi:namedview
     id="base"
     pagecolor="#ffffff"
     bordercolor="#666666"
     borderopacity="1.0"
     inkscape:pageopacity="0.0"
     inkscape:pageshadow="2"
     inkscape:zoom="16"
     inkscape:cx="15.793747"
     inkscape:cy="18.72241"
     inkscape:document-units="px"
     inkscape:current-layer="layer1"
     showgrid="true"
     fit-margin-top="0"
     fit-margin-left="0"
     fit-margin-right="0"
     fit-margin-bottom="0"
     inkscape:window-width="2560"
     inkscape:window-height="1377"
     inkscape:window-x="1912"
     inkscape:window-y="-8"
     inkscape:window-maximized="1"
     units="px">
    <inkscape:grid
       type="xygrid"
       id="grid4573"
       empspacing="4"
       originx="0"
       originy="1e-07" />
  </sodipodi:namedview>
  <metadata
     id="metadata5">
    <rdf:RDF>
      <cc:Work
         rdf:about="">
        <dc:format>image/svg+xml</dc:format>
        <dc:type
           rdf:resource="http://purl.org/dc/dcmitype/StillImage" />
        <dc:title></dc:title>
      </cc:Work>
    </rdf:RDF>
  </metadata>
  <g
     inkscape:groupmode="layer"
     id="layer2"
     inkscape:label="Background"
     transform="translate(0,3.1749998)">
    <path
       style="fill:#ff5721;fill-opacity:1;stroke:none;stroke-width:0.39687496px;stroke-linecap:butt;stroke-linejoin:miter;stroke-opacity:1"
       d="m 2.38125,-3.1749998 c 0,0 -2.38125,0 -2.38125,2.38124996 0,2.38124994 0,4.76249974 0,4.76249974 0,0 0,2.38125 2.38125,2.38125 2.3812499,0 4.7624997,0 4.7624997,0 0,0 2.38125,0 2.38125,-2.38125 0,-2.3812498 0,-4.76249974 0,-4.76249974 0,0 0,-2.38124996 -2.38125,-2.38124996 -2.3812498,0 -4.7624997,0 -4.7624997,0 z"
       id="path4589"
       inkscape:connector-curvature="0" />
  </g>
  <g
     inkscape:label="Layer 1"
     inkscape:groupmode="layer"
     id="layer1"
     transform="translate(-91.787892,-99.46827)"
     style="display:inline">
    <path
       style="fill:none;stroke:#ffffff;stroke-width:0.25399947px;stroke-linecap:round;stroke-linejoin:round;stroke-opacity:1"
       d="m 95.026395,105.24677 c 0,0 -1.523997,0 -1.523997,-2.03199 0,-2.032 1.523997,-2.032 1.523997,-2.032 h 3.047994 c 0,0 1.523997,0 1.523997,2.032 v 4.06399 h -3.047994 v -4.06399"
       id="path4577"
       inkscape:connector-curvature="0"
       sodipodi:nodetypes="csccsccc" />
    <path
       style="fill:none;stroke:#ffffff;stroke-width:0.25399947px;stroke-linecap:round;stroke-linejoin:round;stroke-opacity:1"
       d="m 95.026395,101.18278 c 0,0 1.523997,0 1.523997,2.032"
       id="path4579"
       inkscape:connector-curvature="0" />
    <path
       style="fill:none;stroke:#ffffff;stroke-width:0.25399947px;stroke-linecap:round;stroke-linejoin:round;stroke-opacity:1"
       d="m 95.026395,102.19878 c 0,0 0.761998,0 0.761998,1.016 0,1.016 -0.761998,1.016 -0.761998,1.016"
       id="path4583"
       inkscape:connector-curvature="0" />
  </g>
</svg>
